<svg width="15" height="15" viewBox="0 0 15 15" fill="none" xmlns="http://www.w3.org/2000/svg">
<path fill-rule="evenodd" clip-rule="evenodd" d="M13.6096 4.49999C13.818 4.49999 13.995 4.57291 14.1409 4.71874C14.2867 4.86457 14.3596 5.04165 14.3596 5.24999V9.24998C14.3596 9.45831 14.2867 9.63539 14.1409 9.78123C13.995 9.92706 13.818 9.99998 13.6096 9.99998H13.3596V13.5C13.3596 13.9166 13.2138 14.2708 12.9221 14.5625C12.6305 14.8541 12.2763 15 11.8596 15H2.85962C2.44295 15 2.08879 14.8541 1.79712 14.5625C1.50545 14.2708 1.35962 13.9166 1.35962 13.5V9.99998H1.10962C0.901286 9.99998 0.724203 9.92706 0.578369 9.78123C0.432536 9.63539 0.359619 9.45831 0.359619 9.24998V5.24999C0.359619 5.04165 0.432536 4.86457 0.578369 4.71874C0.724203 4.57291 0.901286 4.49999 1.10962 4.49999H1.98462C1.56795 3.99999 1.35962 3.41666 1.35962 2.74999C1.35962 2 1.63045 1.35416 2.17212 0.812498C2.71379 0.270833 3.35962 0 4.10962 0C4.73462 0 5.30754 0.177083 5.82837 0.531249C6.2867 0.843748 6.79712 1.39583 7.35962 2.18749C7.92212 1.39583 8.43254 0.843748 8.89087 0.531249C9.4117 0.177083 9.98462 0 10.6096 0C11.3596 0 12.0055 0.270833 12.5471 0.812498C13.0888 1.35416 13.3596 2 13.3596 2.74999C13.3596 3.41666 13.1513 3.99999 12.7346 4.49999H13.6096ZM7.9846 3.90624L7.9221 3.99999H10.6096C10.9638 3.99999 11.2606 3.8802 11.5002 3.64062C11.7398 3.40103 11.8596 3.10416 11.8596 2.74999C11.8596 2.39583 11.7398 2.09895 11.5002 1.85937C11.2606 1.61979 10.9638 1.5 10.6096 1.5C10.3596 1.5 10.1408 1.55208 9.95334 1.65625C9.72418 1.76041 9.45855 1.98437 9.15647 2.32812C8.85439 2.67187 8.46376 3.19791 7.9846 3.90624ZM4.10961 1.5C3.75544 1.5 3.45857 1.61979 3.21898 1.85937C2.9794 2.09895 2.85961 2.39583 2.85961 2.74999C2.85961 3.10416 2.9794 3.40103 3.21898 3.64062C3.45857 3.8802 3.75544 3.99999 4.10961 3.99999H6.7971L6.7346 3.90624C6.25544 3.19791 5.86481 2.67187 5.56273 2.32812C5.26065 1.98437 4.99502 1.76041 4.76586 1.65625C4.57836 1.55208 4.35961 1.5 4.10961 1.5ZM2.85961 13.5L6.6096 13.5V5.99999H1.85962V8.49998H5.8596V9.99998H2.85961V13.5ZM12.8596 8.49998V5.99999H8.1096V13.5L11.8596 13.5V9.99998H8.8596V8.49998H12.8596Z" fill="#FFC504"/>
</svg>
