<svg width="92" height="54" viewBox="0 0 92 54" fill="none" xmlns="http://www.w3.org/2000/svg">
<path opacity="0.2" fill-rule="evenodd" clip-rule="evenodd" d="M55.0222 0C55.3665 0 55.705 0.0888851 56.0049 0.258052L89.9839 19.4261C90.6125 19.7807 91.0013 20.4464 91.0013 21.1681V49.5184C91.0013 51.0619 89.3271 52.0236 87.9938 51.2461L6.51166 3.72768C4.74805 2.69919 5.4776 0 7.51919 0H55.0222Z" fill="#17BFB4"/>
<path fill-rule="evenodd" clip-rule="evenodd" d="M65.5684 19.6104L69.652 21.9715L70.2759 20.8892L67.4209 19.2384L68.1747 17.931L70.9691 19.5467L71.5931 18.4644L68.7986 16.8487L69.5025 15.6278L72.3575 17.2786L72.9814 16.1962L68.8979 13.8351L65.5684 19.6104ZM63.0267 18.1412L64.2638 18.8565L67.5931 13.0814L66.356 12.3661L65.0482 14.6346L62.3231 13.0589L63.6309 10.7904L62.4024 10.0801L59.0731 15.8553L60.3015 16.5656L61.6992 14.1412L64.4243 15.7169L63.0267 18.1412ZM37.0251 14.6568L35.7879 13.9415L38.4934 9.24867L35.7682 7.67299L33.0628 12.3658L31.8344 11.6555L35.1637 5.8804L40.3544 8.88168L37.0251 14.6568ZM38.3298 15.4106L39.5582 16.1209L40.7413 14.0689L42.212 14.9192C43.4578 15.6396 44.6441 15.1825 45.2231 14.1782C45.8071 13.1651 45.6128 11.9214 44.3584 11.1961L41.6592 9.6354L38.3298 15.4106ZM42.6718 13.7416C43.1562 14.0217 43.6943 13.9288 43.9688 13.4526C44.2483 12.9677 44.0547 12.4633 43.5702 12.1832L42.264 11.4279L41.3656 12.9863L42.6718 13.7416ZM45.2851 15.5872C44.2818 17.3275 44.8347 19.3096 46.5736 20.315C48.3211 21.3254 50.3115 20.8139 51.3148 19.0736C52.3181 17.3333 51.7652 15.3513 50.0177 14.3409C48.2788 13.3354 46.2883 13.8469 45.2851 15.5872ZM47.2025 19.2241C48.2666 19.8393 49.4328 19.417 50.0518 18.3434C50.6757 17.2611 50.4528 16.047 49.3888 15.4318C48.3247 14.8165 47.172 15.2352 46.5481 16.3175C45.9291 17.3911 46.1384 18.6088 47.2025 19.2241ZM50.912 21.3685L49.729 23.4205L50.9575 24.1308L51.5714 23.0658L55.1703 25.1467L54.5564 26.2117L55.7848 26.922L57.0227 24.7747L56.5037 24.4746L59.2091 19.7818L55.1084 17.4108L53.0689 20.1682C52.0087 21.587 51.5452 21.6307 50.912 21.3685ZM54.2389 20.9599C53.7032 21.6892 53.1428 22.081 52.5847 22.2086L55.2667 23.7593L57.3482 20.1486L55.592 19.1332L54.2389 20.9599ZM61.2679 28.6715L62.6694 29.4818L63.7754 22.4213L62.2355 21.5309L56.6743 26.0154L58.0757 26.8257L59.0031 26.0574L61.4773 27.488L61.2679 28.6715ZM61.7639 26.2106L62.2968 23.2054L59.9644 25.1702L61.7639 26.2106ZM63.3772 29.8907L67.4607 32.2518L68.0847 31.1695L65.2297 29.5187L65.9834 28.2112L68.7779 29.827L69.4019 28.7447L66.6074 27.1289L67.3112 25.9081L70.1663 27.5588L70.7902 26.4765L66.7067 24.1154L63.3772 29.8907ZM71.1621 34.3914L69.925 33.676L72.6304 28.9831L70.9434 28.0077L71.5674 26.9254L76.1699 29.5866L75.5459 30.6689L73.8676 29.6985L71.1621 34.3914ZM75.1846 32.8722C74.1614 34.6472 74.8035 36.6347 76.5337 37.6351C77.8055 38.3704 78.9365 38.0893 79.766 37.6108L79.0051 36.4897C78.4883 36.8258 77.7596 36.8893 77.1627 36.5442C76.1159 35.9389 75.8188 34.6935 76.4477 33.6026C77.0766 32.5116 78.3022 32.1466 79.3489 32.7518C79.9459 33.097 80.2503 33.7694 80.223 34.377L81.5779 34.4678C81.5856 33.514 81.2496 32.3962 79.9779 31.6609C78.2476 30.6605 76.2079 31.0973 75.1846 32.8722ZM81.0734 40.121L79.6633 39.3056L82.2288 37.8567C81.6908 37.3493 81.3651 36.4337 81.9541 35.412C82.573 34.3383 83.7626 33.9756 84.9652 34.6709L87.6644 36.2316L84.335 42.0068L83.1065 41.2965L84.2895 39.2444L83.3984 38.7292L81.0734 40.121ZM84.9136 38.1618L83.6247 37.4165C83.1316 37.1314 82.9293 36.622 83.2088 36.1371C83.4883 35.6523 84.03 35.573 84.5231 35.8581L85.8121 36.6034L84.9136 38.1618Z" fill="#16BFB3"/>
</svg>
